{"asset":{"version":"2.0","generator":"Blockbench 5.1.1 glTF exporter"},"scenes":[{"nodes":[8,9,10],"name":"blockbench_export"}],"scene":0,"nodes":[{"translation":[0.71875,0.96875,0],"name":"mesh","mesh":0},{"translation":[-0.71875,0.96875,0],"name":"mesh","mesh":1},{"rotation":[0,-0.7071067811865475,0,0.7071067811865476],"translation":[0.03125,0.96875,0.725],"name":"mesh","mesh":2},{"rotation":[0,-0.7071067811865475,0,0.7071067811865476],"translation":[0,1.84375,-0.7124999999999999],"name":"mesh","mesh":3},{"rotation":[0,-0.7071067811865475,0,0.7071067811865476],"translation":[0.40625,0.125,0.03125],"name":"mesh","mesh":4},{"translation":[-0.375,0.84375,-0.7437499999999999],"name":"doorR","children":[4]},{"rotation":[0,0.7071067811865475,0,0.7071067811865476],"translation":[-0.40625,0.125,0.03125],"name":"mesh","mesh":5},{"translation":[0.375,0.84375,-0.7437499999999999],"name":"doorL","children":[6]},{"name":"lift","children":[0,1,2,3,5,7]},{"translation":[0,1.96875,-0.03125],"name":"mesh","mesh":6},{"translation":[0,0.09375,-0.03125],"name":"mesh","mesh":7}],"bufferViews":[{"buffer":0,"byteOffset":0,"byteLength":288,"target":34962,"byteStride":12},{"buffer":0,"byteOffset":288,"byteLength":288,"target":34962,"byteStride":12},{"buffer":0,"byteOffset":576,"byteLength":192,"target":34962,"byteStride":8},{"buffer":0,"byteOffset":768,"byteLength":72,"target":34963},{"buffer":0,"byteOffset":840,"byteLength":288,"target":34962,"byteStride":12},{"buffer":0,"byteOffset":1128,"byteLength":288,"target":34962,"byteStride":12},{"buffer":0,"byteOffset":1416,"byteLength":192,"target":34962,"byteStride":8},{"buffer":0,"byteOffset":1608,"byteLength":72,"target":34963},{"buffer":0,"byteOffset":1680,"byteLength":288,"target":34962,"byteStride":12},{"buffer":0,"byteOffset":1968,"byteLength":288,"target":34962,"byteStride":12},{"buffer":0,"byteOffset":2256,"byteLength":192,"target":34962,"byteStride":8},{"buffer":0,"byteOffset":2448,"byteLength":72,"target":34963},{"buffer":0,"byteOffset":2520,"byteLength":288,"target":34962,"byteStride":12},{"buffer":0,"byteOffset":2808,"byteLength":288,"target":34962,"byteStride":12},{"buffer":0,"byteOffset":3096,"byteLength":192,"target":34962,"byteStride":8},{"buffer":0,"byteOffset":3288,"byteLength":72,"target":34963},{"buffer":0,"byteOffset":3360,"byteLength":288,"target":34962,"byteStride":12},{"buffer":0,"byteOffset":3648,"byteLength":288,"target":34962,"byteStride":12},{"buffer":0,"byteOffset":3936,"byteLength":192,"target":34962,"byteStride":8},{"buffer":0,"byteOffset":4128,"byteLength":72,"target":34963},{"buffer":0,"byteOffset":4200,"byteLength":288,"target":34962,"byteStride":12},{"buffer":0,"byteOffset":4488,"byteLength":288,"target":34962,"byteStride":12},{"buffer":0,"byteOffset":4776,"byteLength":192,"target":34962,"byteStride":8},{"buffer":0,"byteOffset":4968,"byteLength":72,"target":34963},{"buffer":0,"byteOffset":5040,"byteLength":288,"target":34962,"byteStride":12},{"buffer":0,"byteOffset":5328,"byteLength":288,"target":34962,"byteStride":12},{"buffer":0,"byteOffset":5616,"byteLength":192,"target":34962,"byteStride":8},{"buffer":0,"byteOffset":5808,"byteLength":72,"target":34963},{"buffer":0,"byteOffset":5880,"byteLength":288,"target":34962,"byteStride":12},{"buffer":0,"byteOffset":6168,"byteLength":288,"target":34962,"byteStride":12},{"buffer":0,"byteOffset":6456,"byteLength":192,"target":34962,"byteStride":8},{"buffer":0,"byteOffset":6648,"byteLength":72,"target":34963},{"buffer":0,"byteOffset":6720,"byteLength":24},{"buffer":0,"byteOffset":6744,"byteLength":96},{"buffer":0,"byteOffset":6840,"byteLength":24},{"buffer":0,"byteOffset":6864,"byteLength":72},{"buffer":0,"byteOffset":6936,"byteLength":24},{"buffer":0,"byteOffset":6960,"byteLength":96},{"buffer":0,"byteOffset":7056,"byteLength":24},{"buffer":0,"byteOffset":7080,"byteLength":72},{"buffer":0,"byteOffset":7152,"byteLength":36},{"buffer":0,"byteOffset":7188,"byteLength":144},{"buffer":0,"byteOffset":7332,"byteLength":36},{"buffer":0,"byteOffset":7368,"byteLength":108},{"buffer":0,"byteOffset":7476,"byteLength":36},{"buffer":0,"byteOffset":7512,"byteLength":144},{"buffer":0,"byteOffset":7656,"byteLength":36},{"buffer":0,"byteOffset":7692,"byteLength":108}],"buffers":[{"byteLength":7800,"uri":"data:application/octet-stream;base64,"}],"accessors":[{"bufferView":0,"componentType":5126,"count":24,"max":[0.15625,0.965624988079071,0.8125],"min":[-0.09375,-0.965624988079071,-0.75],"type":"VEC3"},{"bufferView":1,"componentType":5126,"count":24,"max":[1,1,1],"min":[-1,-1,-1],"type":"VEC3"},{"bufferView":2,"componentType":5126,"count":24,"max":[0.53125,0.9140625],"min":[0,0],"type":"VEC2"},{"bufferView":3,"componentType":5123,"count":36,"max":[23],"min":[0],"type":"SCALAR"},{"bufferView":4,"componentType":5126,"count":24,"max":[0.09375,0.965624988079071,0.8125],"min":[-0.15625,-0.965624988079071,-0.75],"type":"VEC3"},{"bufferView":5,"componentType":5126,"count":24,"max":[1,1,1],"min":[-1,-1,-1],"type":"VEC3"},{"bufferView":6,"componentType":5126,"count":24,"max":[0.7109375,0.9140625],"min":[0,0.2421875],"type":"VEC2"},{"bufferView":7,"componentType":5123,"count":36,"max":[23],"min":[0],"type":"SCALAR"},{"bufferView":8,"componentType":5126,"count":24,"max":[0.15625,0.96875,0.8125],"min":[-0.09375,-0.96875,-0.75],"type":"VEC3"},{"bufferView":9,"componentType":5126,"count":24,"max":[1,1,1],"min":[-1,-1,-1],"type":"VEC3"},{"bufferView":10,"componentType":5126,"count":24,"max":[0.7421875,0.921875],"min":[0.390625,0],"type":"VEC2"},{"bufferView":11,"componentType":5123,"count":36,"max":[23],"min":[0],"type":"SCALAR"},{"bufferView":12,"componentType":5126,"count":24,"max":[1.375,0.09375,0.746874988079071],"min":[-0.0625,-0.15625,-0.746874988079071],"type":"VEC3"},{"bufferView":13,"componentType":5126,"count":24,"max":[1,1,1],"min":[-1,-1,-1],"type":"VEC3"},{"bufferView":14,"componentType":5126,"count":24,"max":[0.9296875,0.7578125],"min":[0.40625,0],"type":"VEC2"},{"bufferView":15,"componentType":5123,"count":36,"max":[23],"min":[0],"type":"SCALAR"},{"bufferView":16,"componentType":5126,"count":24,"max":[0.03125,0.71875,0.778124988079071],"min":[-0.09375,-0.96875,0.03437500074505806],"type":"VEC3"},{"bufferView":17,"componentType":5126,"count":24,"max":[1,1,1],"min":[-1,-1,-1],"type":"VEC3"},{"bufferView":18,"componentType":5126,"count":24,"max":[0.7734375,0.953125],"min":[0.09375,0.25],"type":"VEC2"},{"bufferView":19,"componentType":5123,"count":36,"max":[23],"min":[0],"type":"SCALAR"},{"bufferView":20,"componentType":5126,"count":24,"max":[0.09375,0.71875,0.778124988079071],"min":[-0.03125,-0.96875,0.03437500074505806],"type":"VEC3"},{"bufferView":21,"componentType":5126,"count":24,"max":[1,1,1],"min":[-1,-1,-1],"type":"VEC3"},{"bufferView":22,"componentType":5126,"count":24,"max":[0.6796875,0.953125],"min":[0,0.53125],"type":"VEC2"},{"bufferView":23,"componentType":5123,"count":36,"max":[23],"min":[0],"type":"SCALAR"},{"bufferView":24,"componentType":5126,"count":24,"max":[0.8125,0.09375,0.8125],"min":[-0.8125,-0.09375,-0.6875],"type":"VEC3"},{"bufferView":25,"componentType":5126,"count":24,"max":[1,1,1],"min":[-1,-1,-1],"type":"VEC3"},{"bufferView":26,"componentType":5126,"count":24,"max":[0.9453125,0.71875],"min":[0,0.484375],"type":"VEC2"},{"bufferView":27,"componentType":5123,"count":36,"max":[23],"min":[0],"type":"SCALAR"},{"bufferView":28,"componentType":5126,"count":24,"max":[0.6875,0.03125,0.6875],"min":[-0.6875,-0.09375,-0.6875],"type":"VEC3"},{"bufferView":29,"componentType":5126,"count":24,"max":[1,1,1],"min":[-1,-1,-1],"type":"VEC3"},{"bufferView":30,"componentType":5126,"count":24,"max":[0.9296875,0.53125],"min":[0.5859375,0.1875],"type":"VEC2"},{"bufferView":31,"componentType":5123,"count":36,"max":[23],"min":[0],"type":"SCALAR"},{"bufferView":32,"componentType":5126,"count":6,"max":[0.3333333432674408],"min":[0],"type":"SCALAR"},{"bufferView":33,"componentType":5126,"count":6,"max":[0,0.27458861470222473,0,1],"min":[0,0,0,0.9615617990493774],"type":"VEC4"},{"bufferView":34,"componentType":5126,"count":6,"max":[0.3333333432674408],"min":[0],"type":"SCALAR"},{"bufferView":35,"componentType":5126,"count":6,"max":[-0.375,0.84375,-0.7041265964508057],"min":[-1.1936297416687012,0.84375,-0.7437499761581421],"type":"VEC3"},{"bufferView":36,"componentType":5126,"count":6,"max":[0.3333333432674408],"min":[0],"type":"SCALAR"},{"bufferView":37,"componentType":5126,"count":6,"max":[0,0,0,1],"min":[0,-0.27458861470222473,0,0.9615617990493774],"type":"VEC4"},{"bufferView":38,"componentType":5126,"count":6,"max":[0.3333333432674408],"min":[0],"type":"SCALAR"},{"bufferView":39,"componentType":5126,"count":6,"max":[1.1936297416687012,0.84375,-0.7041265964508057],"min":[0.375,0.84375,-0.7437499761581421],"type":"VEC3"},{"bufferView":40,"componentType":5126,"count":9,"max":[0.4166666567325592],"min":[0],"type":"SCALAR"},{"bufferView":41,"componentType":5126,"count":9,"max":[0,0.27458861470222473,0,1],"min":[0,0,0,0.9615617990493774],"type":"VEC4"},{"bufferView":42,"componentType":5126,"count":9,"max":[0.4166666567325592],"min":[0],"type":"SCALAR"},{"bufferView":43,"componentType":5126,"count":9,"max":[-0.375,0.84375,-0.7041265964508057],"min":[-1.2176969051361084,0.84375,-0.7437499761581421],"type":"VEC3"},{"bufferView":44,"componentType":5126,"count":9,"max":[0.4166666567325592],"min":[0],"type":"SCALAR"},{"bufferView":45,"componentType":5126,"count":9,"max":[0,0,0,1],"min":[0,-0.27458861470222473,0,0.9615617990493774],"type":"VEC4"},{"bufferView":46,"componentType":5126,"count":9,"max":[0.4166666567325592],"min":[0],"type":"SCALAR"},{"bufferView":47,"componentType":5126,"count":9,"max":[1.2176969051361084,0.84375,-0.7041265964508057],"min":[0.375,0.84375,-0.7437499761581421],"type":"VEC3"}],"materials":[{"pbrMetallicRoughness":{"metallicFactor":0,"roughnessFactor":1,"baseColorTexture":{"index":0}},"alphaMode":"MASK","alphaCutoff":0.05,"doubleSided":true}],"textures":[{"sampler":0,"source":0,"name":"texture"}],"samplers":[{"magFilter":9728,"minFilter":9728,"wrapS":33071,"wrapT":33071}],"images":[{"mimeType":"image/png","uri":"data:image/png;base64,"}],"meshes":[{"primitives":[{"mode":4,"attributes":{"POSITION":0,"NORMAL":1,"TEXCOORD_0":2},"indices":3,"material":0}]},{"primitives":[{"mode":4,"attributes":{"POSITION":4,"NORMAL":5,"TEXCOORD_0":6},"indices":7,"material":0}]},{"primitives":[{"mode":4,"attributes":{"POSITION":8,"NORMAL":9,"TEXCOORD_0":10},"indices":11,"material":0}]},{"primitives":[{"mode":4,"attributes":{"POSITION":12,"NORMAL":13,"TEXCOORD_0":14},"indices":15,"material":0}]},{"primitives":[{"mode":4,"attributes":{"POSITION":16,"NORMAL":17,"TEXCOORD_0":18},"indices":19,"material":0}]},{"primitives":[{"mode":4,"attributes":{"POSITION":20,"NORMAL":21,"TEXCOORD_0":22},"indices":23,"material":0}]},{"primitives":[{"mode":4,"attributes":{"POSITION":24,"NORMAL":25,"TEXCOORD_0":26},"indices":27,"material":0}]},{"primitives":[{"mode":4,"attributes":{"POSITION":28,"NORMAL":29,"TEXCOORD_0":30},"indices":31,"material":0}]}],"animations":[{"name":"open","samplers":[{"input":32,"output":33,"interpolation":"LINEAR"},{"input":34,"output":35,"interpolation":"LINEAR"},{"input":36,"output":37,"interpolation":"LINEAR"},{"input":38,"output":39,"interpolation":"LINEAR"}],"channels":[{"sampler":0,"target":{"node":5,"path":"rotation"}},{"sampler":1,"target":{"node":5,"path":"translation"}},{"sampler":2,"target":{"node":7,"path":"rotation"}},{"sampler":3,"target":{"node":7,"path":"translation"}}]},{"name":"close","samplers":[{"input":40,"output":41,"interpolation":"LINEAR"},{"input":42,"output":43,"interpolation":"LINEAR"},{"input":44,"output":45,"interpolation":"LINEAR"},{"input":46,"output":47,"interpolation":"LINEAR"}],"channels":[{"sampler":0,"target":{"node":5,"path":"rotation"}},{"sampler":1,"target":{"node":5,"path":"translation"}},{"sampler":2,"target":{"node":7,"path":"rotation"}},{"sampler":3,"target":{"node":7,"path":"translation"}}]}]}