{"asset":{"version":"2.0","generator":"Blockbench 5.1.1 glTF exporter"},"scenes":[{"nodes":[5],"name":"blockbench_export"}],"scene":0,"nodes":[{"translation":[-0.3125,0.5,0.3125],"name":"mesh","mesh":0},{"rotation":[0,-0.13052619222005157,0,0.9914448613738104],"name":"mesh","mesh":1},{"rotation":[0.06508464715365347,-0.2935778713738292,-0.2064221286261709,0.9311100509380921],"translation":[-0.5,0.4375,-0.625],"name":"mesh","mesh":2},{"rotation":[-0.16397011082185114,-0.32046791752232245,-0.08694122893095195,0.9289000696027272],"translation":[0.25,0.625,0.3125],"name":"mesh","mesh":3},{"rotation":[-0.3696490051389769,-0.6322653290832417,-0.01204267133665804,0.6807753966662587],"translation":[0.609375,0.4375,-0.734375],"name":"mesh","mesh":4},{"name":"rock","children":[0,1,2,3,4]}],"bufferViews":[{"buffer":0,"byteOffset":0,"byteLength":1152,"target":34962,"byteStride":12},{"buffer":0,"byteOffset":1152,"byteLength":1152,"target":34962,"byteStride":12},{"buffer":0,"byteOffset":2304,"byteLength":768,"target":34962,"byteStride":8},{"buffer":0,"byteOffset":3072,"byteLength":288,"target":34963},{"buffer":0,"byteOffset":3360,"byteLength":768,"target":34962,"byteStride":12},{"buffer":0,"byteOffset":4128,"byteLength":768,"target":34962,"byteStride":12},{"buffer":0,"byteOffset":4896,"byteLength":512,"target":34962,"byteStride":8},{"buffer":0,"byteOffset":5408,"byteLength":192,"target":34963},{"buffer":0,"byteOffset":5600,"byteLength":1152,"target":34962,"byteStride":12},{"buffer":0,"byteOffset":6752,"byteLength":1152,"target":34962,"byteStride":12},{"buffer":0,"byteOffset":7904,"byteLength":768,"target":34962,"byteStride":8},{"buffer":0,"byteOffset":8672,"byteLength":288,"target":34963},{"buffer":0,"byteOffset":8960,"byteLength":1152,"target":34962,"byteStride":12},{"buffer":0,"byteOffset":10112,"byteLength":1152,"target":34962,"byteStride":12},{"buffer":0,"byteOffset":11264,"byteLength":768,"target":34962,"byteStride":8},{"buffer":0,"byteOffset":12032,"byteLength":288,"target":34963},{"buffer":0,"byteOffset":12320,"byteLength":1152,"target":34962,"byteStride":12},{"buffer":0,"byteOffset":13472,"byteLength":1152,"target":34962,"byteStride":12},{"buffer":0,"byteOffset":14624,"byteLength":768,"target":34962,"byteStride":8},{"buffer":0,"byteOffset":15392,"byteLength":288,"target":34963}],"buffers":[{"byteLength":15680,"uri":"data:application/octet-stream;base64,"}],"accessors":[{"bufferView":0,"componentType":5126,"count":96,"max":[0.5,0.625,0.9375],"min":[-0.6875,-0.5,-0.375],"type":"VEC3"},{"bufferView":1,"componentType":5126,"count":96,"max":[1,0.9713104367256165,0.9804497361183167],"min":[-0.9284766912460327,-1,-0.9701424837112427],"type":"VEC3"},{"bufferView":2,"componentType":5126,"count":96,"max":[0.5566109418869019,0.6484375],"min":[0.0019234203500673175,0],"type":"VEC2"},{"bufferView":3,"componentType":5123,"count":144,"max":[95],"min":[0],"type":"SCALAR"},{"bufferView":4,"componentType":5126,"count":64,"max":[0.6228703856468201,1,0.9375],"min":[-0.8083158731460571,0,-0.9375],"type":"VEC3"},{"bufferView":5,"componentType":5126,"count":64,"max":[0.9980023503303528,0.9735512733459473,1],"min":[-0.9771646857261658,-1,-1],"type":"VEC3"},{"bufferView":6,"componentType":5126,"count":64,"max":[0.640625,0.5625],"min":[0,0],"type":"VEC2"},{"bufferView":7,"componentType":5123,"count":96,"max":[63],"min":[0],"type":"SCALAR"},{"bufferView":8,"componentType":5126,"count":96,"max":[0.25,0.25,0.25],"min":[-0.25,-0.25,-0.25],"type":"VEC3"},{"bufferView":9,"componentType":5126,"count":96,"max":[0.9486833214759827,0.9486833214759827,0.9486833214759827],"min":[-0.9486833214759827,-0.9486833214759827,-0.9486833214759827],"type":"VEC3"},{"bufferView":10,"componentType":5126,"count":96,"max":[0.5982281565666199,0.5637679696083069],"min":[0,0],"type":"VEC2"},{"bufferView":11,"componentType":5123,"count":144,"max":[95],"min":[0],"type":"SCALAR"},{"bufferView":12,"componentType":5126,"count":96,"max":[0.25,0.21875,0.25],"min":[-0.25,-0.28125,-0.25],"type":"VEC3"},{"bufferView":13,"componentType":5126,"count":96,"max":[0.9486833214759827,0.9486833214759827,0.9486833214759827],"min":[-0.9486833214759827,-0.9486833214759827,-0.9486833214759827],"type":"VEC3"},{"bufferView":14,"componentType":5126,"count":96,"max":[0.59375,0.610518753528595],"min":[0.003334174631163478,0.0625],"type":"VEC2"},{"bufferView":15,"componentType":5123,"count":144,"max":[95],"min":[0],"type":"SCALAR"},{"bufferView":16,"componentType":5126,"count":96,"max":[0.375,0.203125,0.28125],"min":[-0.125,-0.296875,-0.21875],"type":"VEC3"},{"bufferView":17,"componentType":5126,"count":96,"max":[0.9486833214759827,0.9486833214759827,0.9486833214759827],"min":[-0.9486833214759827,-0.9486833214759827,-0.9486833214759827],"type":"VEC3"},{"bufferView":18,"componentType":5126,"count":96,"max":[0.5872046947479248,0.618332028388977],"min":[0.06904453039169312,0.0065444111824035645],"type":"VEC2"},{"bufferView":19,"componentType":5123,"count":144,"max":[95],"min":[0],"type":"SCALAR"}],"materials":[{"pbrMetallicRoughness":{"metallicFactor":0,"roughnessFactor":1,"baseColorTexture":{"index":0}},"alphaMode":"MASK","alphaCutoff":0.05,"doubleSided":true}],"textures":[{"sampler":0,"source":0,"name":"texture"}],"samplers":[{"magFilter":9728,"minFilter":9728,"wrapS":33071,"wrapT":33071}],"images":[{"mimeType":"image/png","uri":"data:image/png;base64,"}],"meshes":[{"primitives":[{"mode":4,"attributes":{"POSITION":0,"NORMAL":1,"TEXCOORD_0":2},"indices":3,"material":0}]},{"primitives":[{"mode":4,"attributes":{"POSITION":4,"NORMAL":5,"TEXCOORD_0":6},"indices":7,"material":0}]},{"primitives":[{"mode":4,"attributes":{"POSITION":8,"NORMAL":9,"TEXCOORD_0":10},"indices":11,"material":0}]},{"primitives":[{"mode":4,"attributes":{"POSITION":12,"NORMAL":13,"TEXCOORD_0":14},"indices":15,"material":0}]},{"primitives":[{"mode":4,"attributes":{"POSITION":16,"NORMAL":17,"TEXCOORD_0":18},"indices":19,"material":0}]}]}