{"asset":{"version":"2.0","generator":"Blockbench 5.1.1 glTF exporter"},"scenes":[{"nodes":[0,1,2,3,4,5,6],"name":"blockbench_export"}],"scene":0,"nodes":[{"rotation":[6.123233995736771e-17,-1,6.123233995736771e-17,-8.222589276130066e-16],"name":"mesh","mesh":0},{"rotation":[6.123233995736771e-17,-1,6.123233995736771e-17,-8.222589276130066e-16],"translation":[0,-0.0625,0],"name":"mesh","mesh":1},{"rotation":[6.123233995736771e-17,-1,6.123233995736771e-17,-8.222589276130066e-16],"translation":[0,-0.0625,0],"name":"mesh","mesh":2},{"rotation":[4.1209914269225234e-20,0.7071067811865475,4.120991426922523e-20,0.7071067811865476],"translation":[0,-0.0625,0],"name":"mesh","mesh":3},{"rotation":[4.1209914269225234e-20,0.7071067811865475,4.120991426922523e-20,0.7071067811865476],"translation":[0,-0.0625,0],"name":"mesh","mesh":4},{"rotation":[6.123233995736771e-17,-1,6.123233995736771e-17,-8.222589276130066e-16],"name":"mesh","mesh":5},{"rotation":[4.1209914269225234e-20,0.7071067811865475,4.120991426922523e-20,0.7071067811865476],"name":"mesh","mesh":6}],"bufferViews":[{"buffer":0,"byteOffset":0,"byteLength":288,"target":34962,"byteStride":12},{"buffer":0,"byteOffset":288,"byteLength":288,"target":34962,"byteStride":12},{"buffer":0,"byteOffset":576,"byteLength":192,"target":34962,"byteStride":8},{"buffer":0,"byteOffset":768,"byteLength":72,"target":34963},{"buffer":0,"byteOffset":840,"byteLength":288,"target":34962,"byteStride":12},{"buffer":0,"byteOffset":1128,"byteLength":288,"target":34962,"byteStride":12},{"buffer":0,"byteOffset":1416,"byteLength":192,"target":34962,"byteStride":8},{"buffer":0,"byteOffset":1608,"byteLength":72,"target":34963},{"buffer":0,"byteOffset":1680,"byteLength":288,"target":34962,"byteStride":12},{"buffer":0,"byteOffset":1968,"byteLength":288,"target":34962,"byteStride":12},{"buffer":0,"byteOffset":2256,"byteLength":192,"target":34962,"byteStride":8},{"buffer":0,"byteOffset":2448,"byteLength":72,"target":34963},{"buffer":0,"byteOffset":2520,"byteLength":288,"target":34962,"byteStride":12},{"buffer":0,"byteOffset":2808,"byteLength":288,"target":34962,"byteStride":12},{"buffer":0,"byteOffset":3096,"byteLength":192,"target":34962,"byteStride":8},{"buffer":0,"byteOffset":3288,"byteLength":72,"target":34963},{"buffer":0,"byteOffset":3360,"byteLength":288,"target":34962,"byteStride":12},{"buffer":0,"byteOffset":3648,"byteLength":288,"target":34962,"byteStride":12},{"buffer":0,"byteOffset":3936,"byteLength":192,"target":34962,"byteStride":8},{"buffer":0,"byteOffset":4128,"byteLength":72,"target":34963},{"buffer":0,"byteOffset":4200,"byteLength":576,"target":34962,"byteStride":12},{"buffer":0,"byteOffset":4776,"byteLength":576,"target":34962,"byteStride":12},{"buffer":0,"byteOffset":5352,"byteLength":384,"target":34962,"byteStride":8},{"buffer":0,"byteOffset":5736,"byteLength":144,"target":34963},{"buffer":0,"byteOffset":5880,"byteLength":576,"target":34962,"byteStride":12},{"buffer":0,"byteOffset":6456,"byteLength":576,"target":34962,"byteStride":12},{"buffer":0,"byteOffset":7032,"byteLength":384,"target":34962,"byteStride":8},{"buffer":0,"byteOffset":7416,"byteLength":144,"target":34963}],"buffers":[{"byteLength":7560,"uri":"data:application/octet-stream;base64,"}],"accessors":[{"bufferView":0,"componentType":5126,"count":24,"max":[0.40625,0.4375,0.40625],"min":[-0.40625,0,-0.40625],"type":"VEC3"},{"bufferView":1,"componentType":5126,"count":24,"max":[1,1,1],"min":[-1,-1,-1],"type":"VEC3"},{"bufferView":2,"componentType":5126,"count":24,"max":[0.4296875,0.4453125],"min":[0,0.21875],"type":"VEC2"},{"bufferView":3,"componentType":5123,"count":36,"max":[23],"min":[0],"type":"SCALAR"},{"bufferView":4,"componentType":5126,"count":24,"max":[0.53125,0.75,-0.5062500238418579],"min":[-0.53125,0.5625,-0.5687500238418579],"type":"VEC3"},{"bufferView":5,"componentType":5126,"count":24,"max":[1,1,1],"min":[-1,-1,-1],"type":"VEC3"},{"bufferView":6,"componentType":5126,"count":24,"max":[0.5546875,0.4765625],"min":[0.09375,0.203125],"type":"VEC2"},{"bufferView":7,"componentType":5123,"count":36,"max":[23],"min":[0],"type":"SCALAR"},{"bufferView":8,"componentType":5126,"count":24,"max":[0.53125,0.75,0.5562499761581421],"min":[-0.53125,0.5625,0.4937500059604645],"type":"VEC3"},{"bufferView":9,"componentType":5126,"count":24,"max":[1,1,1],"min":[-1,-1,-1],"type":"VEC3"},{"bufferView":10,"componentType":5126,"count":24,"max":[0.5703125,0.4765625],"min":[0.125,0.25],"type":"VEC2"},{"bufferView":11,"componentType":5123,"count":36,"max":[23],"min":[0],"type":"SCALAR"},{"bufferView":12,"componentType":5126,"count":24,"max":[0.53125,0.75,0.5562499761581421],"min":[-0.53125,0.5625,0.4937500059604645],"type":"VEC3"},{"bufferView":13,"componentType":5126,"count":24,"max":[1,1,1],"min":[-1,-1,-1],"type":"VEC3"},{"bufferView":14,"componentType":5126,"count":24,"max":[0.5703125,0.4765625],"min":[0.15625,0],"type":"VEC2"},{"bufferView":15,"componentType":5123,"count":36,"max":[23],"min":[0],"type":"SCALAR"},{"bufferView":16,"componentType":5126,"count":24,"max":[0.53125,0.75,-0.5062500238418579],"min":[-0.53125,0.5625,-0.5687500238418579],"type":"VEC3"},{"bufferView":17,"componentType":5126,"count":24,"max":[1,1,1],"min":[-1,-1,-1],"type":"VEC3"},{"bufferView":18,"componentType":5126,"count":24,"max":[0.5859375,0.4765625],"min":[0.1875,0.03125],"type":"VEC2"},{"bufferView":19,"componentType":5123,"count":36,"max":[23],"min":[0],"type":"SCALAR"},{"bufferView":20,"componentType":5126,"count":48,"max":[0.53125,0.815625011920929,0.528124988079071],"min":[-0.53125,-0.0031250000465661287,-0.528124988079071],"type":"VEC3"},{"bufferView":21,"componentType":5126,"count":48,"max":[1,1,1],"min":[-1,-1,-1],"type":"VEC3"},{"bufferView":22,"componentType":5126,"count":48,"max":[0.4609375,0.5546875],"min":[0,0],"type":"VEC2"},{"bufferView":23,"componentType":5123,"count":72,"max":[47],"min":[0],"type":"SCALAR"},{"bufferView":24,"componentType":5126,"count":48,"max":[0.534375011920929,0.8125,0.528124988079071],"min":[-0.534375011920929,0,-0.528124988079071],"type":"VEC3"},{"bufferView":25,"componentType":5126,"count":48,"max":[1,1,1],"min":[-1,-1,-1],"type":"VEC3"},{"bufferView":26,"componentType":5126,"count":48,"max":[0.4453125,0.5546875],"min":[0,0],"type":"VEC2"},{"bufferView":27,"componentType":5123,"count":72,"max":[47],"min":[0],"type":"SCALAR"}],"materials":[{"pbrMetallicRoughness":{"metallicFactor":0,"roughnessFactor":1,"baseColorTexture":{"index":0}},"alphaMode":"MASK","alphaCutoff":0.05,"doubleSided":true}],"textures":[{"sampler":0,"source":0,"name":"texture"}],"samplers":[{"magFilter":9728,"minFilter":9728,"wrapS":33071,"wrapT":33071}],"images":[{"mimeType":"image/png","uri":"data:image/png;base64,"}],"meshes":[{"primitives":[{"mode":4,"attributes":{"POSITION":0,"NORMAL":1,"TEXCOORD_0":2},"indices":3,"material":0}]},{"primitives":[{"mode":4,"attributes":{"POSITION":4,"NORMAL":5,"TEXCOORD_0":6},"indices":7,"material":0}]},{"primitives":[{"mode":4,"attributes":{"POSITION":8,"NORMAL":9,"TEXCOORD_0":10},"indices":11,"material":0}]},{"primitives":[{"mode":4,"attributes":{"POSITION":12,"NORMAL":13,"TEXCOORD_0":14},"indices":15,"material":0}]},{"primitives":[{"mode":4,"attributes":{"POSITION":16,"NORMAL":17,"TEXCOORD_0":18},"indices":19,"material":0}]},{"primitives":[{"mode":4,"attributes":{"POSITION":20,"NORMAL":21,"TEXCOORD_0":22},"indices":23,"material":0}]},{"primitives":[{"mode":4,"attributes":{"POSITION":24,"NORMAL":25,"TEXCOORD_0":26},"indices":27,"material":0}]}]}