{"asset":{"version":"2.0","generator":"Blockbench 5.1.1 glTF exporter"},"scenes":[{"nodes":[22],"name":"blockbench_export"}],"scene":0,"nodes":[{"name":"mesh","mesh":0},{"translation":[0.146875,0,0],"name":"legL","children":[0]},{"name":"mesh","mesh":1},{"translation":[-0.146875,0,0],"name":"legR","children":[2]},{"translation":[0,0.453125,0],"name":"legs","children":[1,3]},{"translation":[0,-0.21875,0],"name":"body","mesh":2},{"translation":[0,-0.140625,0],"name":"mesh","mesh":3},{"translation":[0,0.03125,0],"name":"mesh","mesh":4},{"rotation":[-0.7071067811865475,0,0,0.7071067811865476],"name":"plane","mesh":5},{"translation":[0.125,0.15625,-0.1575],"name":"eyeL","children":[8]},{"rotation":[-0.7071067811865475,0,0,0.7071067811865476],"translation":[-0.125,0,0],"name":"plane","mesh":6},{"translation":[0,0.15625,-0.1575],"name":"eyeR","children":[10]},{"translation":[0,0.0625,0],"name":"head","children":[7,9,11]},{"translation":[0,0.203125,0],"name":"neck","children":[6,12]},{"name":"mesh","mesh":7},{"rotation":[0,0,-0.3826834323650898,0.9238795325112867],"translation":[-0.1875,0,0],"name":"armR","children":[14]},{"name":"mesh","mesh":8},{"rotation":[-0.16806930625621255,0.686842564416734,-0.6868425644167341,0.16806930625621258],"translation":[-0.012500000000000011,-0.22812500000000002,0],"name":"hand"},{"rotation":[0,0,0.3826834323650898,0.9238795325112867],"translation":[0.1875,0,0],"name":"armL","children":[16,17]},{"translation":[0,0.140625,0],"name":"arms","children":[15,18]},{"translation":[0,0.59375,0],"name":"upperBody","children":[5,13,19]},{"translation":[0,-0.09375,0],"name":"body","children":[4,20]},{"name":"seal","children":[21]}],"bufferViews":[{"buffer":0,"byteOffset":0,"byteLength":288,"target":34962,"byteStride":12},{"buffer":0,"byteOffset":288,"byteLength":288,"target":34962,"byteStride":12},{"buffer":0,"byteOffset":576,"byteLength":192,"target":34962,"byteStride":8},{"buffer":0,"byteOffset":768,"byteLength":72,"target":34963},{"buffer":0,"byteOffset":840,"byteLength":288,"target":34962,"byteStride":12},{"buffer":0,"byteOffset":1128,"byteLength":288,"target":34962,"byteStride":12},{"buffer":0,"byteOffset":1416,"byteLength":192,"target":34962,"byteStride":8},{"buffer":0,"byteOffset":1608,"byteLength":72,"target":34963},{"buffer":0,"byteOffset":1680,"byteLength":288,"target":34962,"byteStride":12},{"buffer":0,"byteOffset":1968,"byteLength":288,"target":34962,"byteStride":12},{"buffer":0,"byteOffset":2256,"byteLength":192,"target":34962,"byteStride":8},{"buffer":0,"byteOffset":2448,"byteLength":72,"target":34963},{"buffer":0,"byteOffset":2520,"byteLength":288,"target":34962,"byteStride":12},{"buffer":0,"byteOffset":2808,"byteLength":288,"target":34962,"byteStride":12},{"buffer":0,"byteOffset":3096,"byteLength":192,"target":34962,"byteStride":8},{"buffer":0,"byteOffset":3288,"byteLength":72,"target":34963},{"buffer":0,"byteOffset":3360,"byteLength":288,"target":34962,"byteStride":12},{"buffer":0,"byteOffset":3648,"byteLength":288,"target":34962,"byteStride":12},{"buffer":0,"byteOffset":3936,"byteLength":192,"target":34962,"byteStride":8},{"buffer":0,"byteOffset":4128,"byteLength":72,"target":34963},{"buffer":0,"byteOffset":4200,"byteLength":48,"target":34962,"byteStride":12},{"buffer":0,"byteOffset":4248,"byteLength":48,"target":34962,"byteStride":12},{"buffer":0,"byteOffset":4296,"byteLength":32,"target":34962,"byteStride":8},{"buffer":0,"byteOffset":4328,"byteLength":12,"target":34963},{"buffer":0,"byteOffset":4340,"byteLength":48,"target":34962,"byteStride":12},{"buffer":0,"byteOffset":4388,"byteLength":48,"target":34962,"byteStride":12},{"buffer":0,"byteOffset":4436,"byteLength":32,"target":34962,"byteStride":8},{"buffer":0,"byteOffset":4468,"byteLength":12,"target":34963},{"buffer":0,"byteOffset":4480,"byteLength":288,"target":34962,"byteStride":12},{"buffer":0,"byteOffset":4768,"byteLength":288,"target":34962,"byteStride":12},{"buffer":0,"byteOffset":5056,"byteLength":192,"target":34962,"byteStride":8},{"buffer":0,"byteOffset":5248,"byteLength":72,"target":34963},{"buffer":0,"byteOffset":5320,"byteLength":288,"target":34962,"byteStride":12},{"buffer":0,"byteOffset":5608,"byteLength":288,"target":34962,"byteStride":12},{"buffer":0,"byteOffset":5896,"byteLength":192,"target":34962,"byteStride":8},{"buffer":0,"byteOffset":6088,"byteLength":72,"target":34963},{"buffer":0,"byteOffset":6160,"byteLength":232},{"buffer":0,"byteOffset":6392,"byteLength":928},{"buffer":0,"byteOffset":7320,"byteLength":232},{"buffer":0,"byteOffset":7552,"byteLength":696},{"buffer":0,"byteOffset":8248,"byteLength":232},{"buffer":0,"byteOffset":8480,"byteLength":696},{"buffer":0,"byteOffset":9176,"byteLength":232},{"buffer":0,"byteOffset":9408,"byteLength":696},{"buffer":0,"byteOffset":10104,"byteLength":232},{"buffer":0,"byteOffset":10336,"byteLength":928},{"buffer":0,"byteOffset":11264,"byteLength":232},{"buffer":0,"byteOffset":11496,"byteLength":928},{"buffer":0,"byteOffset":12424,"byteLength":232},{"buffer":0,"byteOffset":12656,"byteLength":928},{"buffer":0,"byteOffset":13584,"byteLength":232},{"buffer":0,"byteOffset":13816,"byteLength":696},{"buffer":0,"byteOffset":14512,"byteLength":232},{"buffer":0,"byteOffset":14744,"byteLength":928},{"buffer":0,"byteOffset":15672,"byteLength":232},{"buffer":0,"byteOffset":15904,"byteLength":696},{"buffer":0,"byteOffset":16600,"byteLength":232},{"buffer":0,"byteOffset":16832,"byteLength":696},{"buffer":0,"byteOffset":17528,"byteLength":232},{"buffer":0,"byteOffset":17760,"byteLength":928},{"buffer":0,"byteOffset":18688,"byteLength":232},{"buffer":0,"byteOffset":18920,"byteLength":696},{"buffer":0,"byteOffset":19616,"byteLength":232},{"buffer":0,"byteOffset":19848,"byteLength":928},{"buffer":0,"byteOffset":20776,"byteLength":232},{"buffer":0,"byteOffset":21008,"byteLength":696},{"buffer":0,"byteOffset":21704,"byteLength":232},{"buffer":0,"byteOffset":21936,"byteLength":928},{"buffer":0,"byteOffset":22864,"byteLength":232},{"buffer":0,"byteOffset":23096,"byteLength":928},{"buffer":0,"byteOffset":24024,"byteLength":232},{"buffer":0,"byteOffset":24256,"byteLength":928},{"buffer":0,"byteOffset":25184,"byteLength":232},{"buffer":0,"byteOffset":25416,"byteLength":696},{"buffer":0,"byteOffset":26112,"byteLength":68},{"buffer":0,"byteOffset":26180,"byteLength":272}],"buffers":[{"byteLength":26452,"uri":"data:application/octet-stream;base64,"}],"accessors":[{"bufferView":0,"componentType":5126,"count":24,"max":[0.08749999850988388,-0.03125,0.09375],"min":[-0.08437500149011612,-0.359375,-0.09375],"type":"VEC3"},{"bufferView":1,"componentType":5126,"count":24,"max":[1,1,1],"min":[-1,-1,-1],"type":"VEC3"},{"bufferView":2,"componentType":5126,"count":24,"max":[0.96875,0.75],"min":[0.6875,0],"type":"VEC2"},{"bufferView":3,"componentType":5123,"count":36,"max":[23],"min":[0],"type":"SCALAR"},{"bufferView":4,"componentType":5126,"count":24,"max":[0.08437500149011612,-0.03125,0.09375],"min":[-0.08749999850988388,-0.359375,-0.09375],"type":"VEC3"},{"bufferView":5,"componentType":5126,"count":24,"max":[1,1,1],"min":[-1,-1,-1],"type":"VEC3"},{"bufferView":6,"componentType":5126,"count":24,"max":[0.96875,0.96875],"min":[0.28125,0.5625],"type":"VEC2"},{"bufferView":7,"componentType":5123,"count":36,"max":[23],"min":[0],"type":"SCALAR"},{"bufferView":8,"componentType":5126,"count":24,"max":[0.25,0.4375,0.125],"min":[-0.25,0,-0.125],"type":"VEC3"},{"bufferView":9,"componentType":5126,"count":24,"max":[1,1,1],"min":[-1,-1,-1],"type":"VEC3"},{"bufferView":10,"componentType":5126,"count":24,"max":[0.8125,0.8125],"min":[0,0],"type":"VEC2"},{"bufferView":11,"componentType":5123,"count":36,"max":[23],"min":[0],"type":"SCALAR"},{"bufferView":12,"componentType":5126,"count":24,"max":[0.125,0.25,0.0625],"min":[-0.125,0.0625,-0.0625],"type":"VEC3"},{"bufferView":13,"componentType":5126,"count":24,"max":[1,1,1],"min":[-1,-1,-1],"type":"VEC3"},{"bufferView":14,"componentType":5126,"count":24,"max":[1,0.78125],"min":[0.5625,0.14332377910614014],"type":"VEC2"},{"bufferView":15,"componentType":5123,"count":36,"max":[23],"min":[0],"type":"SCALAR"},{"bufferView":16,"componentType":5126,"count":24,"max":[0.3125,0.28125,0.15625],"min":[-0.3125,-0.03125,-0.15625],"type":"VEC3"},{"bufferView":17,"componentType":5126,"count":24,"max":[1,1,1],"min":[-1,-1,-1],"type":"VEC3"},{"bufferView":18,"componentType":5126,"count":24,"max":[0.5625,0.78125],"min":[0,0],"type":"VEC2"},{"bufferView":19,"componentType":5123,"count":36,"max":[23],"min":[0],"type":"SCALAR"},{"bufferView":20,"componentType":5126,"count":4,"max":[0.0625,0,0.09375],"min":[-0.0625,0,-0.09375],"type":"VEC3"},{"bufferView":21,"componentType":5126,"count":4,"max":[0,1,0],"min":[0,1,0],"type":"VEC3"},{"bufferView":22,"componentType":5126,"count":4,"max":[1,0.9375],"min":[0.9375,0.84375],"type":"VEC2"},{"bufferView":23,"componentType":5123,"count":6,"max":[3],"min":[0],"type":"SCALAR"},{"bufferView":24,"componentType":5126,"count":4,"max":[0.0625,0,0.09375],"min":[-0.0625,0,-0.09375],"type":"VEC3"},{"bufferView":25,"componentType":5126,"count":4,"max":[0,1,0],"min":[0,1,0],"type":"VEC3"},{"bufferView":26,"componentType":5126,"count":4,"max":[1,0.9375],"min":[0.9375,0.84375],"type":"VEC2"},{"bufferView":27,"componentType":5123,"count":6,"max":[3],"min":[0],"type":"SCALAR"},{"bufferView":28,"componentType":5126,"count":24,"max":[0.10041499882936478,-0.0031274999491870403,0.09375],"min":[-0.07146000117063522,-0.31562748551368713,-0.09375],"type":"VEC3"},{"bufferView":29,"componentType":5126,"count":24,"max":[1,1,1],"min":[-1,-1,-1],"type":"VEC3"},{"bufferView":30,"componentType":5126,"count":24,"max":[0.96875,0.9375],"min":[0,0.125],"type":"VEC2"},{"bufferView":31,"componentType":5123,"count":36,"max":[23],"min":[0],"type":"SCALAR"},{"bufferView":32,"componentType":5126,"count":24,"max":[0.07146000117063522,-0.0031274999491870403,0.09375],"min":[-0.10041499882936478,-0.31562748551368713,-0.09375],"type":"VEC3"},{"bufferView":33,"componentType":5126,"count":24,"max":[1,1,1],"min":[-1,-1,-1],"type":"VEC3"},{"bufferView":34,"componentType":5126,"count":24,"max":[0.96875,0.9375],"min":[0.1875,0.28125],"type":"VEC2"},{"bufferView":35,"componentType":5123,"count":36,"max":[23],"min":[0],"type":"SCALAR"},{"bufferView":36,"componentType":5126,"count":58,"max":[3.5],"min":[0],"type":"SCALAR"},{"bufferView":37,"componentType":5126,"count":58,"max":[0.008719151839613914,0,0,1],"min":[-0.026147430762648582,0,0,0.9996581077575684],"type":"VEC4"},{"bufferView":38,"componentType":5126,"count":58,"max":[3.5],"min":[0],"type":"SCALAR"},{"bufferView":39,"componentType":5126,"count":58,"max":[0,0.20311905443668365,0],"min":[0,0.1906355768442154,0],"type":"VEC3"},{"bufferView":40,"componentType":5126,"count":58,"max":[3.5],"min":[0],"type":"SCALAR"},{"bufferView":41,"componentType":5126,"count":58,"max":[0.125,0.15624405443668365,-0.1574999988079071],"min":[0.125,0.1437605768442154,-0.1574999988079071],"type":"VEC3"},{"bufferView":42,"componentType":5126,"count":58,"max":[3.5],"min":[0],"type":"SCALAR"},{"bufferView":43,"componentType":5126,"count":58,"max":[0,0.1562473624944687,-0.1574999988079071],"min":[0,0.1437605768442154,-0.1574999988079071],"type":"VEC3"},{"bufferView":44,"componentType":5126,"count":58,"max":[3.5],"min":[0],"type":"SCALAR"},{"bufferView":45,"componentType":5126,"count":58,"max":[0.04082940146327019,0.01805291324853897,-0.3418287932872772,0.939156711101532],"min":[-0.039681870490312576,-0.015373848378658295,-0.4223540127277374,0.9057847857475281],"type":"VEC4"},{"bufferView":46,"componentType":5126,"count":58,"max":[3.5],"min":[0],"type":"SCALAR"},{"bufferView":47,"componentType":5126,"count":58,"max":[0.04065141826868057,0.015610400587320328,0.42239704728126526,0.9393415451049805],"min":[-0.03980361297726631,-0.017852481454610825,0.3419361710548401,0.9059315919876099],"type":"VEC4"},{"bufferView":48,"componentType":5126,"count":58,"max":[3.5],"min":[0],"type":"SCALAR"},{"bufferView":49,"componentType":5126,"count":58,"max":[0.017445024102926254,0,0,0.999999463558197],"min":[-0.017422882840037346,0,0,0.9998478293418884],"type":"VEC4"},{"bufferView":50,"componentType":5126,"count":58,"max":[3.5],"min":[0],"type":"SCALAR"},{"bufferView":51,"componentType":5126,"count":58,"max":[0,0.5937321782112122,0],"min":[0,0.5562817454338074,0],"type":"VEC3"},{"bufferView":52,"componentType":5126,"count":58,"max":[3.5],"min":[0],"type":"SCALAR"},{"bufferView":53,"componentType":5126,"count":58,"max":[0.017444543540477753,0.008725538849830627,0.00000968778840615414,0.9999919533729553],"min":[-0.017451908439397812,-0.008710845373570919,-0.0001420975459041074,0.9998176693916321],"type":"VEC4"},{"bufferView":54,"componentType":5126,"count":58,"max":[3.5],"min":[0],"type":"SCALAR"},{"bufferView":55,"componentType":5126,"count":58,"max":[0.125,0.16875000298023224,-0.1574999988079071],"min":[0.125,0.14377114176750183,-0.1574999988079071],"type":"VEC3"},{"bufferView":56,"componentType":5126,"count":58,"max":[3.5],"min":[0],"type":"SCALAR"},{"bufferView":57,"componentType":5126,"count":58,"max":[0,0.16875000298023224,-0.1574999988079071],"min":[0,0.14377114176750183,-0.1574999988079071],"type":"VEC3"},{"bufferView":58,"componentType":5126,"count":58,"max":[3.5],"min":[0],"type":"SCALAR"},{"bufferView":59,"componentType":5126,"count":58,"max":[0.17357546091079712,0,0,1],"min":[-0.17335736751556396,0,0,0.984820544719696],"type":"VEC4"},{"bufferView":60,"componentType":5126,"count":58,"max":[3.5],"min":[0],"type":"SCALAR"},{"bufferView":61,"componentType":5126,"count":58,"max":[0.14687499403953552,0.06247355788946152,0.00937500037252903],"min":[0.14687499403953552,0,0.00937500037252903],"type":"VEC3"},{"bufferView":62,"componentType":5126,"count":58,"max":[3.5],"min":[0],"type":"SCALAR"},{"bufferView":63,"componentType":5126,"count":58,"max":[0.17335736751556396,0,0,1],"min":[-0.17357546091079712,0,0,0.984820544719696],"type":"VEC4"},{"bufferView":64,"componentType":5126,"count":58,"max":[3.5],"min":[0],"type":"SCALAR"},{"bufferView":65,"componentType":5126,"count":58,"max":[-0.14687499403953552,0.06247355788946152,0.015625],"min":[-0.14687499403953552,0,0.00937500037252903],"type":"VEC3"},{"bufferView":66,"componentType":5126,"count":58,"max":[3.5],"min":[0],"type":"SCALAR"},{"bufferView":67,"componentType":5126,"count":58,"max":[0.07732144743204117,0.026240456849336624,-0.2996004521846771,0.9500889778137207],"min":[-0.0829806700348854,-0.04021836817264557,-0.4598979353904724,0.8837742805480957],"type":"VEC4"},{"bufferView":68,"componentType":5126,"count":58,"max":[3.5],"min":[0],"type":"SCALAR"},{"bufferView":69,"componentType":5126,"count":58,"max":[0.0772814005613327,0.04021565243601799,0.4599648416042328,0.9501255750656128],"min":[-0.08311320096254349,-0.026246199384331703,0.29961201548576355,0.8836638927459717],"type":"VEC4"},{"bufferView":70,"componentType":5126,"count":58,"max":[3.5],"min":[0],"type":"SCALAR"},{"bufferView":71,"componentType":5126,"count":58,"max":[0.011296859011054039,0.0435677208006382,0.001555577153339982,0.9999920725822449],"min":[-0.04097754880785942,-0.04353615269064903,-0.0015494630206376314,0.9984440207481384],"type":"VEC4"},{"bufferView":72,"componentType":5126,"count":58,"max":[3.5],"min":[0],"type":"SCALAR"},{"bufferView":73,"componentType":5126,"count":58,"max":[0,0.643750011920929,0],"min":[0,0.59375,0],"type":"VEC3"},{"bufferView":74,"componentType":5126,"count":17,"max":[1],"min":[0],"type":"SCALAR"},{"bufferView":75,"componentType":5126,"count":17,"max":[0.2929316461086273,0.47236698865890503,0.7869630455970764,0.9238795042037964],"min":[-0.18365895748138428,-0.308225154876709,0.36763399839401245,0.5651049017906189],"type":"VEC4"}],"materials":[{"pbrMetallicRoughness":{"metallicFactor":0,"roughnessFactor":1,"baseColorTexture":{"index":0}},"alphaMode":"MASK","alphaCutoff":0.05,"doubleSided":true}],"textures":[{"sampler":0,"source":0,"name":"texture.png"}],"samplers":[{"magFilter":9728,"minFilter":9728,"wrapS":33071,"wrapT":33071}],"images":[{"mimeType":"image/png","uri":"data:image/png;base64,"}],"meshes":[{"primitives":[{"mode":4,"attributes":{"POSITION":0,"NORMAL":1,"TEXCOORD_0":2},"indices":3,"material":0}]},{"primitives":[{"mode":4,"attributes":{"POSITION":4,"NORMAL":5,"TEXCOORD_0":6},"indices":7,"material":0}]},{"primitives":[{"mode":4,"attributes":{"POSITION":8,"NORMAL":9,"TEXCOORD_0":10},"indices":11,"material":0}]},{"primitives":[{"mode":4,"attributes":{"POSITION":12,"NORMAL":13,"TEXCOORD_0":14},"indices":15,"material":0}]},{"primitives":[{"mode":4,"attributes":{"POSITION":16,"NORMAL":17,"TEXCOORD_0":18},"indices":19,"material":0}]},{"primitives":[{"mode":4,"attributes":{"POSITION":20,"NORMAL":21,"TEXCOORD_0":22},"indices":23,"material":0}]},{"primitives":[{"mode":4,"attributes":{"POSITION":24,"NORMAL":25,"TEXCOORD_0":26},"indices":27,"material":0}]},{"primitives":[{"mode":4,"attributes":{"POSITION":28,"NORMAL":29,"TEXCOORD_0":30},"indices":31,"material":0}]},{"primitives":[{"mode":4,"attributes":{"POSITION":32,"NORMAL":33,"TEXCOORD_0":34},"indices":35,"material":0}]}],"animations":[{"name":"idle","samplers":[{"input":36,"output":37,"interpolation":"LINEAR"},{"input":38,"output":39,"interpolation":"LINEAR"},{"input":40,"output":41,"interpolation":"LINEAR"},{"input":42,"output":43,"interpolation":"LINEAR"},{"input":44,"output":45,"interpolation":"LINEAR"},{"input":46,"output":47,"interpolation":"LINEAR"},{"input":48,"output":49,"interpolation":"LINEAR"},{"input":50,"output":51,"interpolation":"LINEAR"}],"channels":[{"sampler":0,"target":{"node":13,"path":"rotation"}},{"sampler":1,"target":{"node":13,"path":"translation"}},{"sampler":2,"target":{"node":9,"path":"translation"}},{"sampler":3,"target":{"node":11,"path":"translation"}},{"sampler":4,"target":{"node":15,"path":"rotation"}},{"sampler":5,"target":{"node":18,"path":"rotation"}},{"sampler":6,"target":{"node":20,"path":"rotation"}},{"sampler":7,"target":{"node":20,"path":"translation"}}]},{"name":"walk","samplers":[{"input":52,"output":53,"interpolation":"LINEAR"},{"input":54,"output":55,"interpolation":"LINEAR"},{"input":56,"output":57,"interpolation":"LINEAR"},{"input":58,"output":59,"interpolation":"LINEAR"},{"input":60,"output":61,"interpolation":"LINEAR"},{"input":62,"output":63,"interpolation":"LINEAR"},{"input":64,"output":65,"interpolation":"LINEAR"},{"input":66,"output":67,"interpolation":"LINEAR"},{"input":68,"output":69,"interpolation":"LINEAR"},{"input":70,"output":71,"interpolation":"LINEAR"},{"input":72,"output":73,"interpolation":"LINEAR"}],"channels":[{"sampler":0,"target":{"node":13,"path":"rotation"}},{"sampler":1,"target":{"node":9,"path":"translation"}},{"sampler":2,"target":{"node":11,"path":"translation"}},{"sampler":3,"target":{"node":1,"path":"rotation"}},{"sampler":4,"target":{"node":1,"path":"translation"}},{"sampler":5,"target":{"node":3,"path":"rotation"}},{"sampler":6,"target":{"node":3,"path":"translation"}},{"sampler":7,"target":{"node":15,"path":"rotation"}},{"sampler":8,"target":{"node":18,"path":"rotation"}},{"sampler":9,"target":{"node":20,"path":"rotation"}},{"sampler":10,"target":{"node":20,"path":"translation"}}]},{"name":"swing","samplers":[{"input":74,"output":75,"interpolation":"LINEAR"}],"channels":[{"sampler":0,"target":{"node":18,"path":"rotation"}}]}]}